<svg id="Capa_1" enable-background="new 0 0 480.005 480.005" height="512" viewBox="0 0 480.005 480.005" width="512" xmlns="http://www.w3.org/2000/svg"><g><path d="m32.003 272.004c-17.665-.02-31.98-14.335-32-32 0-79.406 64.6-144.007 144-144.007h208l-51.2-38.4c-14.135-10.608-16.994-30.667-6.386-44.802 10.604-14.129 30.651-16.993 44.786-6.398l128 96c14.138 10.604 17.004 30.662 6.4 44.8-1.819 2.426-3.974 4.581-6.4 6.4l-128 96c-5.524 4.17-12.259 6.42-19.18 6.407-17.673.011-32.009-14.307-32.02-31.98-.006-10.079 4.737-19.572 12.8-25.62l51.2-38.4h-208c-44.162.051-79.949 35.838-80 80-.02 17.664-14.335 31.979-32 32zm112-160.008c-70.662.082-127.923 57.346-128 128.008 0 8.837 7.163 16 16 16s16-7.163 16-16c.061-52.994 43.006-95.939 96-96h232c4.418 0 8 3.582 8 8 0 2.518-1.186 4.889-3.2 6.4l-70.4 52.8c-7.069 5.302-8.502 15.331-3.2 22.4s15.331 8.502 22.4 3.2l128-96c7.069-5.302 8.502-15.331 3.2-22.4-.91-1.213-1.987-2.29-3.2-3.2l-128-96c-7.069-5.302-17.098-3.869-22.4 3.2s-3.869 17.098 3.2 22.4l70.4 52.8c3.535 2.651 4.251 7.665 1.6 11.2-1.511 2.014-3.882 3.2-6.4 3.2z"/><path d="m159.983 480.004c-6.92.015-13.656-2.233-19.181-6.4l-128-96c-14.138-10.604-17.004-30.661-6.4-44.8 1.819-2.426 3.974-4.581 6.4-6.4l128-96c14.138-10.604 34.196-7.738 44.8 6.4s7.738 34.196-6.4 44.8l-51.199 38.4h208c44.162-.05 79.95-35.838 80-80 0-17.673 14.327-32 32-32s32 14.327 32 32c0 79.4-64.6 144-144 144h-208l51.2 38.4c14.139 10.604 17.004 30.661 6.4 44.8-6.048 8.063-15.541 12.806-25.62 12.8zm0-239.992c-3.455-.004-6.818 1.117-9.58 3.193l-128 96c-7.069 5.302-8.502 15.331-3.2 22.4.91 1.213 1.987 2.29 3.2 3.2l128 96c7.069 5.302 17.098 3.869 22.4-3.2 5.29-7.072 3.859-17.092-3.2-22.4l-70.4-52.8c-3.535-2.65-4.253-7.664-1.602-11.2 1.511-2.016 3.883-3.202 6.402-3.201h232c70.659-.08 127.92-57.341 128-128 0-8.837-7.163-16-16-16s-16 7.163-16 16c-.06 52.995-43.005 95.94-96 96h-232c-4.418 0-8-3.582-8-8 0-2.518 1.186-4.889 3.2-6.4l70.4-52.8c7.069-5.297 8.505-15.322 3.208-22.39-3.027-4.039-7.782-6.412-12.828-6.402z"/></g></svg>