<?xml version="1.0"?>
<svg width="257.93281329857973" height="230.8324730411935" xmlns="http://www.w3.org/2000/svg" xmlns:svg="http://www.w3.org/2000/svg" preserveAspectRatio="xMidYMid">
 <linearGradient id="a" x1="108.633%" x2="46.927%" y1="13.818%" y2="78.776%">
  <stop offset="0.18" stop-color="#0052cc"/>
  <stop offset="1" stop-color="#2684ff"/>
 </linearGradient>
 <g class="layer">
  <title>Layer 1</title>
  <g fill="none" id="svg_1">
   <path d="m103.502848,151.270917l51.987507,0l12.548239,-71.720875l-78.359138,0l13.823391,71.720875z" fill="#ffffff" id="svg_2" stroke="#000000" stroke-width="8"/>
   <path d="m13.080827,5.999962a7.977727,7.810072 0 0 0 -7.977727,9.061283l33.86692,201.272656a10.849981,10.621964 0 0 0 10.610708,8.865127l162.47251,0a7.977727,7.810072 0 0 0 7.976754,-6.560765l33.867893,-203.537976a7.977727,7.810072 0 0 0 -7.9787,-9.059379l-232.838358,-0.040945zm142.606977,145.468064l-51.857171,0l-14.041266,-71.816096l78.464184,0l-12.565747,71.816096z" fill="#ffffff" id="svg_3" stroke="#000000" stroke-width="8"/>
   <path d="m242.921458,79.550995l-74.812833,0l-12.55602,71.758963l-51.815347,0l-61.182027,71.095269a10.801348,10.574354 0 0 0 6.974918,2.574791l162.383025,0a7.971891,7.804359 0 0 0 7.971891,-6.555052l23.036392,-138.873971z" fill="#ffffff" id="svg_4" stroke="#000000" stroke-width="8"/>
  </g>
 </g>
</svg>