<?xml version="1.0"?>
<svg width="214.09101008" height="224" xmlns="http://www.w3.org/2000/svg" xmlns:svg="http://www.w3.org/2000/svg" xmlns:xlink="http://www.w3.org/1999/xlink">
 <linearGradient id="a" x1="0.91844" x2="0.28236" y1="0.40311" y2="0.81641">
  <stop offset="0.18" stop-color="#0052cc"/>
  <stop offset="1" stop-color="#2684ff"/>
 </linearGradient>
 <linearGradient id="b" x1="114.65" x2="160.81" xlink:href="#a" y1="85.77" y2="131.92"/>
 <g class="layer">
  <title>Layer 1</title>
  <path d="m208.059994,105.649863l-90.98641,-89.935314l-8.816403,-8.714554l-68.492311,67.701072l-31.319941,30.948795a8.39163,8.294688 0 0 0 0,11.700268l62.573806,61.850938l37.238447,36.798929l68.482872,-67.701072l1.066653,-1.045l30.253288,-29.857143l0,-11.74692l-0.000001,0.000001zm-99.802813,36.752277l-31.263304,-30.902143l31.263304,-30.902143l31.253865,30.902143l-31.253865,30.902143z" fill="#ffffff" id="svg_1" stroke="#000000" stroke-width="8"/>
  <path d="m108.33,81.258978a51.86516,51.763586 0 0 1 -0.223276,-72.988977l-67.420056,67.260164l36.691693,36.619835l30.951639,-30.891022z" fill="#ffffff" id="svg_2" stroke="#000000" stroke-width="8"/>
  <path d="m139.641646,111.91l-31.311646,30.543006a52.597905,51.291282 0 0 1 0,72.526994l68.536665,-66.797306l-37.22502,-36.272694z" fill="#ffffff" id="svg_3" stroke="#000000" stroke-width="8"/>
 </g>
</svg>