<?xml version="1.0" ?><svg height="60px" version="1.1" viewBox="0 0 60 60" width="60px" xmlns="http://www.w3.org/2000/svg" xmlns:xlink="http://www.w3.org/1999/xlink"><title/><desc/><defs/><g fill="none" fill-rule="evenodd" id="Page-1" stroke="none" stroke-width="1"><g id="Photoshop" stroke="#000000" stroke-width="2" transform="translate(1.000000, 1.000000)"><path d="M30.2109,23.1492 C30.2109,16.9222 26.7679,12.0472 17.9319,12.0472 C14.7739,12.0472 11.7479,12.1052 9.7019,12.2072 C9.4529,12.2072 8.9999,12.3682 8.9999,12.5872 L8.9999,47.0722 C8.9999,47.3572 9.1319,47.4592 9.3869,47.4592 L14.2629,47.4592 C14.5549,47.4592 14.6499,47.3272 14.6499,47.0722 L14.6499,34.7412 C15.5119,34.7412 15.9219,34.8072 17.1349,34.8072 C24.3419,34.8072 30.2109,31.3062 30.2109,23.1492 L30.2109,23.1492 Z M48.1399,26.9422 L48.1399,22.5422 C48.1399,22.3162 48.0739,22.0602 47.8189,21.8992 C46.7659,21.4172 44.8509,21.0002 42.1099,21.0002 C36.5259,21.0002 33.3099,24.4352 33.3099,28.5802 C33.3099,32.2712 35.1879,34.4852 39.7199,36.6712 C42.9359,38.3372 43.6739,39.3682 43.6739,40.5232 C43.6739,41.9702 42.6219,43.0222 40.0999,43.0222 C37.9949,43.0222 35.6999,42.4452 33.6899,41.1292 C33.4639,40.9692 33.3099,41.0712 33.3099,41.3852 L33.3099,46.1072 C33.3099,46.3632 33.3389,46.5232 33.5589,46.6182 C34.9329,47.4222 37.3229,48.0002 40.0999,48.0002 C45.3629,48.0002 49.2509,45.2442 49.2509,40.1062 C49.2509,36.6712 47.6869,34.3252 42.6799,31.8832 C39.3029,30.1222 38.7259,29.3182 38.7259,28.1632 C38.7259,27.1032 39.5889,25.8172 42.1099,25.8172 C44.1789,25.8172 46.2539,26.3652 47.6579,27.2642 C47.9789,27.3592 48.1399,27.1982 48.1399,26.9422 L48.1399,26.9422 Z" id="Stroke-90"/><path d="M17.7416,17.1484 C21.9806,17.1484 24.5026,19.2024 24.5026,23.2804 C24.5026,28.3824 20.9946,29.7054 17.2666,29.7054 C15.9876,29.7054 15.4176,29.7054 14.6786,29.6394 L14.6786,17.2434 C15.2566,17.2144 16.4626,17.1484 17.7416,17.1484 L17.7416,17.1484 Z" id="Stroke-91"/><path d="M54,58 L4,58 C1.791,58 0,56.209 0,54 L0,4 C0,1.791 1.791,0 4,0 L54,0 C56.209,0 58,1.791 58,4 L58,54 C58,56.209 56.209,58 54,58 L54,58 Z" id="Stroke-155" stroke-linejoin="round"/></g></g></svg>