<?xml version="1.0"?>
<svg width="214.09101008" height="224" xmlns="http://www.w3.org/2000/svg" xmlns:svg="http://www.w3.org/2000/svg">
 <!-- Created with SVG-edit - https://github.com/SVG-Edit/svgedit-->
 <g class="layer">
  <title>Layer 1</title>
  <path d="m6.51777,151.37874l30.37502,-0.625l0,0.3125l45.56247,0l0,-0.9375l-15.1875,0l30.37501,-0.625l30.37501,0.625l-15.1875,0l0,1.5625l-75.93747,0l0,0.3125l-30.37503,-0.625l0,0l-0.00001,0z" fill="#FF0000" id="svg_1" opacity="0" stroke="#000000" stroke-width="5"/>
  <path d="m12.23778,165.711844l-5.35248,-18.127224l62.82494,-0.292373l99.89188,-1.169492l-1,-14.911017l39.5059,34.500105l-35.5059,34.499895l0,-14.91097l-102.89188,-1.169492c-21.26382,-0.097477 0,-0.194943 -63.79147,-0.29242l6.31901,-18.127013z" fill="#ffffff" id="svg_2" stroke="#000000" stroke-width="8"/>
  <path d="m125.58659,143.021594l15.9993,-45.14915l0,0c0,-19.32996 -20.36217,-35 -45.48019,-35l0,0l0,0c-12.0621,0 -23.63016,3.68749 -32.15936,10.25126c-8.52919,6.56378 -13.32083,15.46616 -13.32083,24.74874l0,5l-12.99433,0l25.98866,20.00001l25.98869,-20.00001l-12.99434,0l0,-5c0,-8.28427 8.72665,-14.99999 19.4915,-14.99999l0,0l0,0c10.76487,0 19.49152,6.71572 19.49152,14.99999l-19.98981,46.18639l29.97919,-1.03724z" fill="#ffffff" id="svg_3" stroke="#000000" stroke-dasharray="null" stroke-linecap="null" stroke-linejoin="null" stroke-width="8" transform="rotate(0.534109 89.6085 103.466)"/>
  <path d="m78.669794,64.224854l-10.211905,-23.488399l0,0c0,-9.357979 12.973544,-16.944134 28.977229,-16.944134l0,0l0,0c7.685241,0 15.055704,1.785183 20.489995,4.962822c5.434291,3.177647 8.487234,7.487449 8.487234,11.981312l0,2.420588l8.279193,0l-16.558396,9.682361l-16.558425,-9.682361l8.279212,0l0,-2.420588c0,-4.01057 -5.560099,-7.261765 -12.418814,-7.261765l0,0l0,0c-6.858715,0 -12.418814,3.251195 -12.418814,7.261765l12.736294,22.359661l-19.082804,1.128738z" fill="#ffffff" id="svg_6" stroke="#000000" stroke-dasharray="null" stroke-linecap="null" stroke-linejoin="null" stroke-width="8" transform="rotate(0.534109 101.575 44.0086)"/>
 </g>
</svg>